<svg width="0" height="0" class="hidden">
  <symbol enable-background="new 0 0 64 64" id="order" version="1.1" xml:space="preserve" xmlns="http://www.w3.org/2000/svg" xmlns:xlink="http://www.w3.org/1999/xlink" viewBox="0 0 64 64">
    <g>
      <path d="M60.3496094,17.6196289C59.9726563,17.2241211,59.4492188,17,58.9023438,17H47v-2c0-7.7197266-6.2802734-14-14-14h-2   c-7.7197266,0-14,6.2802734-14,14v2H5.0976563c-0.546875,0-1.0703125,0.2241211-1.4472656,0.6196289   c-0.3779297,0.3959961-0.5761719,0.9291992-0.5507813,1.4755859l1.8183594,38.1899414   C5.0712891,60.4902344,7.703125,63,10.9111328,63h42.1777344c3.2080078,0,5.8398438-2.5097656,5.9931641-5.7148438   l1.8183594-38.1899414C60.9257813,18.5488281,60.7275391,18.015625,60.3496094,17.6196289z M21,15c0-5.5141602,4.4863281-10,10-10   h2c5.5136719,0,10,4.4858398,10,10v2H21V15z M55.0859375,57.0957031C55.0351563,58.1630859,54.1582031,59,53.0888672,59H10.9111328   c-1.0693359,0-1.9462891-0.8369141-1.9970703-1.9042969L7.1953125,21H17v7c0,1.1044922,0.8955078,2,2,2s2-0.8955078,2-2v-7h22v7   c0,1.1044922,0.8955078,2,2,2s2-0.8955078,2-2v-7h9.8046875L55.0859375,57.0957031z"></path>
      <path d="M20.109375,35.3398438C20,35.2695313,19.8896484,35.2001953,19.7695313,35.1494141   c-0.1298828-0.0498047-0.25-0.0898438-0.3798828-0.109375c-0.6494141-0.1298828-1.3398438,0.0800781-1.7998047,0.5498047   C17.2099609,35.9599609,17,36.4697266,17,37c0,0.2695313,0.0498047,0.5195313,0.1494141,0.7695313   c0.1005859,0.2402344,0.25,0.4599609,0.4404297,0.640625c0.1796875,0.1894531,0.4003906,0.3398438,0.6396484,0.4394531   C18.4794922,38.9501953,18.7294922,39,19,39c0.5302734,0,1.0400391-0.2099609,1.4101563-0.5898438   c0.1894531-0.1806641,0.3398438-0.4003906,0.4394531-0.640625C20.9501953,37.5195313,21,37.2695313,21,37   c0-0.5302734-0.2099609-1.0400391-0.5898438-1.4101563C20.3193359,35.4902344,20.2197266,35.4101563,20.109375,35.3398438z"></path>
      <path d="M46.8496094,36.2294922C46.7998047,36.109375,46.7294922,36,46.6601563,35.8896484   c-0.0703125-0.109375-0.1503906-0.2099609-0.25-0.2998047c-0.4599609-0.4697266-1.1503906-0.6796875-1.8007813-0.5498047   c-0.1298828,0.0195313-0.2597656,0.0595703-0.3798828,0.109375C44.109375,35.2001953,44,35.2695313,43.8896484,35.3398438   c-0.109375,0.0703125-0.2099609,0.1503906-0.2998047,0.25c-0.0996094,0.0898438-0.1796875,0.1904297-0.25,0.2998047   C43.2597656,36,43.2001953,36.109375,43.1494141,36.2294922c-0.0498047,0.1298828-0.0898438,0.25-0.109375,0.3798828   C43.0097656,36.7402344,43,36.8701172,43,37c0,0.2695313,0.0498047,0.5195313,0.1494141,0.7695313   c0.1005859,0.2402344,0.25,0.4599609,0.4404297,0.640625c0.0898438,0.0996094,0.1904297,0.1796875,0.2998047,0.25   C44,38.7402344,44.109375,38.7998047,44.2294922,38.8496094s0.25,0.0898438,0.3798828,0.1103516   C44.7402344,38.9902344,44.8701172,39,45,39s0.2597656-0.0097656,0.3896484-0.0400391   c0.1298828-0.0205078,0.2597656-0.0605469,0.3798828-0.1103516C45.8798828,38.7998047,46,38.7402344,46.109375,38.6601563   c0.1103516-0.0703125,0.2099609-0.1503906,0.3007813-0.25c0.1894531-0.1806641,0.3398438-0.4003906,0.4394531-0.640625   C46.9501953,37.5195313,47,37.2695313,47,37c0-0.1298828-0.0205078-0.2597656-0.0400391-0.390625   C46.9296875,36.4794922,46.8994141,36.359375,46.8496094,36.2294922z"></path>
      <path d="M39,44h-7c-1.1044922,0-2,0.8955078-2,2s0.8955078,2,2,2h4.5820313C35.8095703,49.7646484,34.0458984,51,32,51   c-2.7568359,0-5-2.2431641-5-5c0-1.1044922-0.8955078-2-2-2s-2,0.8955078-2,2c0,4.9628906,4.0371094,9,9,9s9-4.0371094,9-9   C41,44.8955078,40.1044922,44,39,44z"></path>
    </g>
  </symbol>
  <symbol id="settings" xmlns="http://www.w3.org/2000/svg" viewBox="0 0 128 128">
    <title></title>
    <path d="M64,39A25,25,0,1,0,89,64,25,25,0,0,0,64,39Zm0,44A19,19,0,1,1,83,64,19,19,0,0,1,64,83Z"></path>
    <path d="M121,48h-8.93a1,1,0,0,1-.94-.68,49.9,49.9,0,0,0-2-4.85,1,1,0,0,1,.18-1.15L115.62,35a7,7,0,0,0,0-9.9L102.89,12.38a7,7,0,0,0-9.9,0l-6.31,6.31a1,1,0,0,1-1.15.18,49.76,49.76,0,0,0-4.85-2,1,1,0,0,1-.68-.94V7a7,7,0,0,0-7-7H55a7,7,0,0,0-7,7v8.93a1,1,0,0,1-.68.94,49.9,49.9,0,0,0-4.85,2,1,1,0,0,1-1.15-.18L35,12.38a7,7,0,0,0-9.9,0L12.38,25.11a7,7,0,0,0,0,9.9l6.31,6.31a1,1,0,0,1,.18,1.15,49.76,49.76,0,0,0-2,4.85,1,1,0,0,1-.94.68H7a7,7,0,0,0-7,7V73a7,7,0,0,0,7,7h8.93a1,1,0,0,1,.94.68,49.9,49.9,0,0,0,2,4.85,1,1,0,0,1-.18,1.15L12.38,93a7,7,0,0,0,0,9.9l12.73,12.73a7,7,0,0,0,9.9,0l6.31-6.31a1,1,0,0,1,1.15-.18,49.76,49.76,0,0,0,4.85,2,1,1,0,0,1,.68.94V121a7,7,0,0,0,7,7H73a7,7,0,0,0,7-7v-8.93a1,1,0,0,1,.68-.94,49.9,49.9,0,0,0,4.85-2,1,1,0,0,1,1.15.18L93,115.62a7,7,0,0,0,9.9,0l12.73-12.73a7,7,0,0,0,0-9.9l-6.31-6.31a1,1,0,0,1-.18-1.15,49.76,49.76,0,0,0,2-4.85,1,1,0,0,1,.94-.68H121a7,7,0,0,0,7-7V55A7,7,0,0,0,121,48Zm1,25a1,1,0,0,1-1,1h-8.93a7,7,0,0,0-6.6,4.69,43.9,43.9,0,0,1-1.76,4.26,7,7,0,0,0,1.35,8l6.31,6.31a1,1,0,0,1,0,1.41L98.65,111.38a1,1,0,0,1-1.41,0l-6.31-6.31a7,7,0,0,0-8-1.35,43.88,43.88,0,0,1-4.27,1.76,7,7,0,0,0-4.68,6.6V121a1,1,0,0,1-1,1H55a1,1,0,0,1-1-1v-8.93a7,7,0,0,0-4.69-6.6,43.9,43.9,0,0,1-4.26-1.76,7,7,0,0,0-8,1.35l-6.31,6.31a1,1,0,0,1-1.41,0L16.62,98.65a1,1,0,0,1,0-1.41l6.31-6.31a7,7,0,0,0,1.35-8,43.88,43.88,0,0,1-1.76-4.27A7,7,0,0,0,15.93,74H7a1,1,0,0,1-1-1V55a1,1,0,0,1,1-1h8.93a7,7,0,0,0,6.6-4.69,43.9,43.9,0,0,1,1.76-4.26,7,7,0,0,0-1.35-8l-6.31-6.31a1,1,0,0,1,0-1.41L29.35,16.62a1,1,0,0,1,1.41,0l6.31,6.31a7,7,0,0,0,8,1.35,43.88,43.88,0,0,1,4.27-1.76A7,7,0,0,0,54,15.93V7a1,1,0,0,1,1-1H73a1,1,0,0,1,1,1v8.93a7,7,0,0,0,4.69,6.6,43.9,43.9,0,0,1,4.26,1.76,7,7,0,0,0,8-1.35l6.31-6.31a1,1,0,0,1,1.41,0l12.73,12.73a1,1,0,0,1,0,1.41l-6.31,6.31a7,7,0,0,0-1.35,8,43.88,43.88,0,0,1,1.76,4.27,7,7,0,0,0,6.6,4.68H121a1,1,0,0,1,1,1Z"></path>
  </symbol>
  <symbol xmlns="http://www.w3.org/2000/svg" viewBox="0 0 23.81 16.17" id="payments">
    <title></title>
    <g id="Camada_2">
      <g id="Camada_1-2">
        <path d="M21.88,0H1.94A1.94,1.94,0,0,0,0,1.94V14.23a1.94,1.94,0,0,0,1.94,1.94H21.88a1.94,1.94,0,0,0,1.94-1.94V1.94A1.94,1.94,0,0,0,21.88,0ZM1,3.73H22.81V6.09H1ZM1.94,1H21.88a.94.94,0,0,1,.94.94v.79H1V1.94A.94.94,0,0,1,1.94,1ZM21.88,15.17H1.94A.94.94,0,0,1,1,14.23V7.09H22.81v7.13A.94.94,0,0,1,21.88,15.17Z"></path>
        <path d="M19.43,9.79a1.92,1.92,0,0,0-1.44.65A1.94,1.94,0,1,0,18,13a1.93,1.93,0,1,0,1.44-3.22Zm-2.87,2.87a.94.94,0,1,1,.94-.94A.94.94,0,0,1,16.56,12.66Zm2.87,0a.94.94,0,1,1,.94-.94A.94.94,0,0,1,19.43,12.66Z"></path>
      </g>
    </g>
  </symbol>
  <symbol id="users" xmlns="http://www.w3.org/2000/svg" viewBox="0 0 32 32">
    <title></title>
    <g id="Fill">
      <path d="M20,19a5,5,0,1,0-5-5A5,5,0,0,0,20,19Zm0-8a3,3,0,1,1-3,3A3,3,0,0,1,20,11Z"></path>
      <path d="M8.94,10a4,4,0,1,0-4-4A4,4,0,0,0,8.94,10Zm0-6a2,2,0,1,1-2,2A2,2,0,0,1,8.94,4Z"></path>
      <path d="M25,20H15a5,5,0,0,0-5,5v5h2V25a3,3,0,0,1,3-3H25a3,3,0,0,1,3,3v5h2V25A5,5,0,0,0,25,20Z"></path>
      <path d="M13,11H6a4,4,0,0,0-4,4v4H4V15a2,2,0,0,1,2-2h7Z"></path>
    </g>
  </symbol>
  <symbol enable-background="new 0 0 32 32" id="account" version="1.1" xml:space="preserve" xmlns="http://www.w3.org/2000/svg" xmlns:xlink="http://www.w3.org/1999/xlink" viewBox="0 0 32 32">
    <g id="profile_x2C__person">
      <g>
        <g>
          <g>
            <path d="M16,31C7.729,31,1,24.271,1,16S7.729,1,16,1s15,6.729,15,15S24.271,31,16,31z M16,2C8.28,2,2,8.28,2,16      s6.28,14,14,14s14-6.28,14-14S23.72,2,16,2z" fill="#263238"></path>
          </g>
        </g>
      </g>
      <g>
        <g id="team_3_">
          <g>
            <g>
              <g>
                <g>
                  <path d="M23.64,20.713l-4.762-1.652l-0.323-2.584c-0.215,0.307-0.523,0.546-0.924,0.671l0.293,2.345         c0.023,0.189,0.152,0.349,0.332,0.41l5.055,1.756c0.9,0.314,1.689,1.427,1.689,2.381v-0.007c0,0.276,0.224,0.5,0.5,0.5         c0.275,0,0.499-0.223,0.5-0.498C25.997,22.656,24.94,21.168,23.64,20.713z" fill="#263238"></path>
                </g>
              </g>
            </g>
          </g>
          <g>
            <g>
              <g>
                <g>
                  <path d="M6.5,24.532c-0.276,0-0.5-0.224-0.5-0.5v0.007c0-1.379,1.059-2.871,2.359-3.326l4.762-1.641         l0.012-0.28c0.034-0.274,0.289-0.465,0.559-0.434c0.273,0.034,0.468,0.284,0.434,0.559l-0.051,0.589         c-0.023,0.189-0.153,0.348-0.333,0.41l-5.054,1.742C7.789,21.973,7,23.086,7,24.039v-0.007C7,24.309,6.776,24.532,6.5,24.532         z" fill="#263238"></path>
                </g>
              </g>
            </g>
          </g>
          <g>
            <g>
              <g>
                <g>
                  <g>
                    <path d="M16,18.039c-2.779,0-4.192-1.844-4.201-6.469c-0.002-1.174,0.123-2.363,1.227-3.469          C13.729,7.396,14.729,7.039,16,7.039s2.271,0.357,2.975,1.063c1.104,1.105,1.229,2.295,1.227,3.469          C20.192,16.195,18.779,18.039,16,18.039z M16,8.039c-1.009,0-1.75,0.252-2.267,0.769c-0.632,0.633-0.938,1.2-0.935,2.761          c0.008,4.018,1.055,5.471,3.201,5.471s3.193-1.453,3.201-5.471c0.003-1.561-0.303-2.128-0.935-2.761          C17.75,8.291,17.009,8.039,16,8.039z" fill="#263238"></path>
                  </g>
                </g>
              </g>
            </g>
          </g>
        </g>
      </g>
    </g>
  </symbol>
  <symbol id="products" xmlns="http://www.w3.org/2000/svg" viewBox="0 0 108 108">
    <title></title>
    <g id="Line">
      <path d="M54,70.3l0,.12v0q0,.31-.12.63l0,.12a14.24,14.24,0,0,0,.39-2.28Z"></path>
      <path d="M105.13,34.15l-4,0a33.71,33.71,0,0,0-7-15.12,7.5,7.5,0,0,1-1.91,3.4c-1.46,1.36-3.53,1.72-5.36,2-1.34.23-2.73.47-3.32,1s-1,2.24-1.36,3.68l.2,1.11a17.76,17.76,0,0,1-3.66,24c-.48-1.31-1-2.58-1.62-3.84A13.82,13.82,0,1,0,57.61,30.83a37.3,37.3,0,0,0-3.85-1.63,17.8,17.8,0,0,1,25-2.83,8.05,8.05,0,0,1,2-3.82c1.46-1.36,3.53-1.72,5.36-2,1.34-.23,2.73-.47,3.32-1s.92-1.93,1.25-3.25c0-.23.11-.46.17-.69A33.92,33.92,0,0,0,36.52,26.83a38.35,38.35,0,0,0-4.52.65,37.93,37.93,0,0,1,73.12,6.67Z"></path>
      <path d="M105.17,46.1A38.28,38.28,0,0,1,80.52,76c.21-1.07.38-2.15.51-3.26l.07-.07.08-1.21a34.23,34.23,0,0,0,20-25.41Z"></path>
      <rect height="3.58" transform="translate(-20.53 22.83) rotate(-33.7)" width="0.99" x="26.93" y="43.53"></rect>
      <rect height="0.99" transform="translate(-19.95 68.4) rotate(-50.72)" width="3.58" x="60.39" y="54.75"></rect>
      <rect height="0.99" transform="translate(-2.14 120) rotate(-83.5)" width="3.58" x="64.36" y="60.7"></rect>
      <rect height="3.58" transform="translate(-6.55 9.11) rotate(-8.76)" width="0.99" x="55.73" y="45.51"></rect>
      <rect height="3.58" transform="translate(-12.9 60.7) rotate(-60.78)" width="0.99" x="44.8" y="39.56"></rect>
      <rect height="0.99" transform="translate(-11.33 12.5) rotate(-16.92)" width="3.58" x="34.57" y="43.83"></rect>
      <rect height="0.99" transform="translate(-15.94 7.3) rotate(-18.44)" width="6.28" x="11.38" y="52.27"></rect>
      <path d="M39.84,30.67C19.22,30.67,2,48.12,2.38,69.16c0,.27,0,.53,0,.77a37.76,37.76,0,0,0,37.44,35.69A37.75,37.75,0,0,0,77.22,70.83h0C78.55,49.11,61,30.67,39.84,30.67Zm-.17,71.09A33.54,33.54,0,0,1,6.32,71.5,6.68,6.68,0,0,1,7.9,69.25c.4-.38,1.91-1.78,3.58-1.63,1.37.13,2.09,1.22,3,2.11,1.28,1.19,3.53,2.5,7.69,2.69h0A18.27,18.27,0,0,0,34.14,85.27V80.94a13.93,13.93,0,1,1,11.91-.22V85c5.72-2.32,9.39-7.57,10.83-12.41a24.46,24.46,0,0,0,4-2.82c1.5-1.31,2-2.1,3-2.1s1.55.81,3,2.11c.77.68,3,2.56,4.1,2.86a9.46,9.46,0,0,0,1.75.27h0A33.43,33.43,0,0,1,39.67,101.76Zm32.9-32.62c-.41.14-.74-.76-2.8-2.47-2.38-2-3.84-3.13-5.7-3.13-2.21,0-4,1.59-5.69,3.13l-.67.6a17.87,17.87,0,0,0-6.64-13l1.67-2L52,51.56l-1.68,2.05a17.93,17.93,0,0,0-26.53,6.51l-2.41-4.4-.87.48,2.77,5.05A17.59,17.59,0,0,0,21.87,68a6.5,6.5,0,0,1-.91.61,1.57,1.57,0,0,1-.23.11,1,1,0,0,1-.37.09c-1.06,0-3-2.11-3-2.11a9,9,0,0,0-6.54-3c-.7,0-2.48.32-4.43,2.67A33.58,33.58,0,0,1,28.26,36.7l4.92,1.64.32-.93-3.7-1.23A33.48,33.48,0,0,1,54.61,38.1L52,39.41l.44.89,3.28-1.64a33,33,0,0,1,12.73,12.1C73.2,58.9,73.84,68.69,72.57,69.14Z"></path>
      <circle cx="58.96" cy="10.32" r="0.99"></circle>
      <circle cx="46.55" cy="23.73" r="1.49"></circle>
      <circle cx="71.87" cy="17.27" r="1.99"></circle>
      <circle cx="83.29" cy="13.8" r="0.5"></circle>
      <circle cx="54.99" cy="20.25" r="1.99"></circle>
      <circle cx="72.86" cy="10.32" r="0.99"></circle>
      <circle cx="62.93" cy="17.27" r="0.99"></circle>
      <rect height="3.97" rx="1.98" ry="1.98" width="3.97" x="38.11" y="81.8"></rect>
      <rect height="3.97" rx="1.98" ry="1.98" transform="matrix(1, 0.01, -0.01, 1, 0.43, -1.09)" width="3.97" x="101.65" y="38.12"></rect>
    </g>
  </symbol>
  <symbol xmlns="http://www.w3.org/2000/svg" viewBox="0 0 32 32" id="star">
    <defs></defs>
    <title></title>
    <g id="Layer_53">
      <path d="M8,31a2,2,0,0,1-1.17-.38A2.13,2.13,0,0,1,6,28.69l.73-8.19L1.5,14.34a2.14,2.14,0,0,1-.39-2.06A2.06,2.06,0,0,1,2.6,10.9l7.62-1.8,4-7a2.05,2.05,0,0,1,3.58,0l4,7.05,7.62,1.8a2.06,2.06,0,0,1,1.49,1.38,2.14,2.14,0,0,1-.39,2.06L25.32,20.5l.73,8.19a2.13,2.13,0,0,1-.88,1.93,2,2,0,0,1-2,.2L16,27.58,8.84,30.82A2,2,0,0,1,8,31ZM16.05,3l-4.3,7.43a1,1,0,0,1-.64.48l-8,1.89c-.06.1-.07.16,0,.21l5.45,6.49a1,1,0,0,1,.23.73l-.77,8.6C7.93,29,8,29,8,29l7.58-3.42a1,1,0,0,1,.82,0L24,29s.09,0,.08-.13l-.77-8.6a1,1,0,0,1,.23-.73L29,13.05a.15.15,0,0,0,0-.14l-8.1-2a1,1,0,0,1-.64-.48ZM10.88,10h0Z"></path>
    </g>
  </symbol>
</svg>